<svg xmlns="http://www.w3.org/2000/svg" xmlns:xlink="http://www.w3.org/1999/xlink" version="1.1" x="0px" y="0px" viewBox="0 0 100 100" style="enable-background:new 0 0 100 100;" xml:space="preserve"><path d="M50,0C22.4,0,0,22.4,0,50c0,27.6,22.4,50,50,50c27.6,0,50-22.4,50-50C100,22.4,77.6,0,50,0z M50,96.3  C24.5,96.3,3.7,75.5,3.7,50S24.5,3.7,50,3.7S96.3,24.5,96.3,50S75.5,96.3,50,96.3z"></path><path d="M57.8,25.4l-6.2,6.2c-4.1,4.1-4.5,10.5-1.2,15.1L47,50.1c-2-1.4-4.3-2.2-6.8-2.2c-3.1,0-6,1.2-8.2,3.4l-6.2,6.2  c-4.5,4.5-4.5,11.9,0,16.5c2.3,2.3,5.3,3.4,8.2,3.4c3,0,6-1.1,8.2-3.4l6.2-6.2c4.1-4.1,4.5-10.5,1.2-15.1l3.4-3.4  c2,1.5,4.4,2.2,6.8,2.2c3,0,6-1.1,8.2-3.4l6.2-6.2c2.2-2.2,3.4-5.1,3.4-8.2s-1.2-6-3.4-8.2C69.7,20.9,62.3,20.9,57.8,25.4z   M45.8,65.1l-6.2,6.2c-3.1,3.1-8.1,3.1-11.2,0c-3.1-3.1-3.1-8.1,0-11.2l6.2-6.2c1.5-1.5,3.5-2.3,5.6-2.3c1.5,0,2.9,0.4,4.1,1.2  l-3.9,3.9c-0.7,0.7-0.7,1.9,0,2.6c0.4,0.4,0.8,0.5,1.3,0.5s1-0.2,1.3-0.5l3.9-3.9C48.8,58.4,48.4,62.5,45.8,65.1z M71.7,39.3  l-6.2,6.2c-2.6,2.6-6.7,3-9.8,1.2l4.4-4.4c0.7-0.7,0.7-1.9,0-2.6s-1.9-0.7-2.6,0L53.1,44c-1.9-3.1-1.5-7.1,1.2-9.8l6.2-6.2  c1.5-1.5,3.6-2.3,5.6-2.3c2,0,4.1,0.8,5.6,2.3c1.5,1.5,2.3,3.5,2.3,5.6S73.2,37.8,71.7,39.3z"></path></svg>